<?xml version="1.0" standalone="no"?>
<!DOCTYPE svg PUBLIC "-//W3C//DTD SVG 20010904//EN"
 "http://www.w3.org/TR/2001/REC-SVG-20010904/DTD/svg10.dtd">
<svg version="1.0" xmlns="http://www.w3.org/2000/svg"
 width="512.000000pt" height="512.000000pt" viewBox="0 0 512.000000 512.000000"
 preserveAspectRatio="xMidYMid meet">

<g transform="translate(0.000000,512.000000) scale(0.100000,-0.100000)"
fill="#000000" stroke="none">
<path d="M1725 3929 c-302 -44 -608 -266 -754 -549 -74 -145 -105 -275 -104
-445 0 -158 30 -295 63 -295 29 0 30 9 8 90 -27 100 -29 304 -5 405 73 297
265 529 550 666 121 57 220 80 357 82 133 1 201 -14 327 -73 119 -55 186 -103
295 -209 l98 -94 98 94 c109 106 176 154 295 209 126 59 194 74 327 73 137 -2
236 -25 357 -82 426 -204 653 -650 544 -1072 -16 -60 -17 -77 -7 -87 66 -68
110 339 58 529 -97 356 -390 649 -739 738 -311 80 -593 -6 -873 -266 l-60 -55
-79 72 c-242 220 -488 308 -756 269z"/>
<path d="M1900 2841 l-162 -261 -611 0 c-372 0 -618 -4 -627 -10 -12 -7 -12
-13 -4 -27 11 -17 48 -18 640 -18 l628 0 141 227 c77 125 145 232 151 238 6 6
91 -143 249 -440 132 -247 242 -450 245 -450 3 0 107 159 230 354 124 195 228
352 232 348 4 -4 34 -65 67 -137 l59 -130 744 0 c736 0 743 0 743 20 0 20 -8
20 -726 23 l-726 2 -76 163 c-42 89 -79 162 -83 161 -5 -1 -108 -158 -229
-349 -121 -191 -225 -347 -230 -346 -6 1 -116 199 -246 441 -130 242 -238 443
-241 446 -3 3 -79 -112 -168 -255z"/>
<path d="M1030 2425 c-22 -27 49 -115 265 -330 318 -317 851 -793 1217 -1089
l48 -38 32 25 c18 13 128 105 243 203 408 345 703 613 986 894 216 214 292
308 270 334 -17 20 -35 11 -65 -34 -71 -108 -349 -384 -736 -730 -303 -272
-713 -620 -730 -620 -17 0 -489 401 -760 647 -334 301 -625 592 -704 701 -41
56 -47 60 -66 37z"/>
</g>
</svg>
